<svg xmlns="http://www.w3.org/2000/svg" width="160" height="36" viewBox="0 0 160 36" fill="none">
  <!-- Montaña -->
  <path d="M5 28 L20 10 L28 18 L36 8 L55 28 Z" fill="#16A34A"></path>
  <!-- Texto CERRO (simple) -->
  <g fill="#FFFFFF">
    <path d="M68 25c-4.8 0-8.6-3.7-8.6-8.4s3.8-8.4 8.6-8.4c2.2 0 4 .6 5.7 2l-2 2.6c-1.2-1-2.3-1.4-3.7-1.4-2.8 0-4.9 2.2-4.9 5.2s2.1 5.2 4.9 5.2c1.6 0 2.8-.5 4-1.6l2 2.6c-1.7 1.5-3.7 2.2-6 2.2z"></path>
    <path d="M82.2 8.6h3.6v16h-3.6v-16z"></path>
    <path d="M92.3 8.6h6.3c4.6 0 7.5 2.7 7.5 8s-2.9 8-7.5 8h-6.3v-16zm6.1 12.8c2.9 0 4.6-1.8 4.6-4.8s-1.7-4.8-4.6-4.8h-2.6v9.6h2.6z"></path>
    <path d="M112.6 8.6h6.3c4.6 0 7.5 2.7 7.5 8s-2.9 8-7.5 8h-6.3v-16zm6.1 12.8c2.9 0 4.6-1.8 4.6-4.8s-1.7-4.8-4.6-4.8h-2.6v9.6h2.6z"></path>
    <path d="M135.5 8.6h3.6v16h-3.6v-16z"></path>
  </g>
</svg>
